# Blender 4.4.3
# www.blender.org
mtllib corner.mtl
o corner
v -0.500000 0.875000 0.062500
v -0.187500 0.875000 0.062500
v -0.500000 0.687500 0.062500
v -0.187500 0.687500 0.062500
v -0.500000 0.875000 -0.000000
v -0.187500 0.875000 -0.000000
v -0.500000 0.687500 -0.000000
v -0.187500 0.687500 -0.000000
v -0.500000 0.000000 0.000000
v -0.500000 0.000000 0.250000
v 0.250000 0.000000 0.250000
v -0.500000 -0.125000 0.250000
v 0.250000 -0.125000 0.250000
v -0.001417 0.000000 0.000000
v 0.000000 -0.000000 -0.500000
v 0.250000 -0.000000 -0.500000
v 0.250000 -0.125000 -0.500000
v 0.250000 0.000000 0.250000
v 0.250000 -0.125000 0.250000
v 0.000000 0.000000 0.001429
v 0.062500 0.625000 -0.125000
v 0.062500 0.625000 -0.437500
v 0.062500 0.437500 -0.125000
v 0.062500 0.437500 -0.437500
v 0.000000 0.625000 -0.125000
v 0.000000 0.625000 -0.437500
v 0.000000 0.437500 -0.125000
v 0.000000 0.437500 -0.437500
v 0.000000 -0.062500 0.000000
v 0.000000 -0.062500 0.500000
v 0.000000 -0.125000 0.500000
v 0.500000 -0.062500 0.500000
v 0.500000 -0.062500 0.000000
v 0.500000 -0.125000 0.500000
v 0.500000 -0.125000 0.000000
v -0.500000 -0.062500 0.000000
v -0.500000 -0.062500 0.500000
v -0.500000 -0.125000 0.000000
v -0.500000 -0.125000 0.500000
v 0.000000 -0.062500 0.500000
v 0.000000 -0.062500 0.000000
v 0.000000 -0.125000 0.500000
v 0.000000 -0.062500 -0.500000
v 0.000000 -0.062500 0.000000
v 0.000000 -0.125000 -0.500000
v 0.500000 -0.062500 0.000000
v 0.500000 -0.062500 -0.500000
v 0.500000 -0.125000 0.000000
v 0.500000 -0.125000 -0.500000
v -0.500000 0.937500 -0.500000
v -0.500000 0.937500 -0.000000
v -0.500000 -0.062500 0.000000
v 0.000000 0.937500 -0.500000
v 0.000000 0.937500 -0.000000
v 0.000000 -0.062500 -0.500000
v 0.000000 -0.062500 0.000000
v -0.312500 0.625000 0.062500
v 0.000000 0.625000 0.062500
v -0.312500 0.437500 0.062500
v 0.000000 0.437500 0.062500
v -0.312500 0.625000 -0.000000
v 0.000000 0.625000 -0.000000
v -0.312500 0.437500 -0.000000
v 0.000000 0.437500 -0.000000
v 0.062500 0.375000 -0.000000
v 0.062500 0.375000 -0.312500
v 0.062500 0.187500 -0.000000
v 0.062500 0.187500 -0.312500
v 0.000000 0.375000 -0.000000
v 0.000000 0.375000 -0.312500
v 0.000000 0.187500 -0.000000
v 0.000000 0.187500 -0.312500
v 0.062500 0.875000 -0.062500
v 0.062500 0.875000 -0.375000
v 0.062500 0.687500 -0.062500
v 0.062500 0.687500 -0.375000
v 0.000000 0.875000 -0.062500
v 0.000000 0.875000 -0.375000
v 0.000000 0.687500 -0.062500
v 0.000000 0.687500 -0.375000
v -0.437500 0.375000 0.062500
v -0.125000 0.375000 0.062500
v -0.437500 0.187500 0.062500
v -0.125000 0.187500 0.062500
v -0.437500 0.375000 -0.000000
v -0.125000 0.375000 -0.000000
v -0.437500 0.187500 -0.000000
v -0.125000 0.187500 -0.000000
v -0.250000 1.000000 -0.187500
v -0.250000 1.000000 -0.500000
v -0.062500 1.000000 -0.187500
v -0.062500 1.000000 -0.500000
v -0.250000 0.937500 -0.187500
v -0.250000 0.937500 -0.500000
v -0.062500 0.937500 -0.187500
v -0.062500 0.937500 -0.500000
v -0.437500 1.000000 -0.125000
v -0.125000 1.000000 -0.125000
v -0.437500 1.000000 0.062500
v -0.125000 1.000000 0.062500
v -0.437500 0.937500 -0.125000
v -0.125000 0.937500 -0.125000
v -0.437500 0.937500 0.062500
v -0.125000 0.937500 0.062500
vn -0.0000 -0.0000 1.0000
vn -0.0000 1.0000 -0.0000
vn -0.0000 -1.0000 -0.0000
vn -1.0000 -0.0000 -0.0000
vn 1.0000 -0.0000 -0.0000
vn -0.0000 -0.0000 -1.0000
vt 0.796875 0.148438
vt 0.757812 0.125000
vt 0.796875 0.125000
vt 0.812500 0.171875
vt 0.804688 0.132812
vt 0.812500 0.132812
vt 0.804688 0.171875
vt 0.796875 0.132812
vt 0.796875 0.171875
vt 0.789062 0.148438
vt 0.687500 0.187500
vt 0.687500 0.171875
vt 0.843573 0.218750
vt 0.781250 0.187500
vt 0.875000 0.187500
vt 0.781250 0.171875
vt 0.812321 0.218750
vt 0.875000 0.218750
vt 1.000000 0.250000
vt 0.937500 0.257812
vt 0.937500 0.250000
vt 0.937500 0.187500
vt 0.875000 0.250000
vt 0.937500 0.125000
vt 1.000000 0.187500
vt 1.000000 0.125000
vt 0.937500 0.000000
vt 1.000000 0.000000
vt 0.812500 0.125000
vt 0.875000 0.125000
vt 0.757812 0.148438
vt 0.718750 0.125000
vt 0.750000 0.171875
vt 0.789062 0.164062
vt 0.789062 0.171875
vt 0.750000 0.164062
vt 0.789062 0.156250
vt 0.750000 0.156250
vt 0.773438 0.148438
vt 0.773438 0.156250
vt 0.812500 0.187500
vt 0.781250 0.218750
vt 1.000000 0.257812
vt 0.718750 0.148438
vt 0.750000 0.148438
s 1
usemtl m_b48d6d2a-9c0f-2889-7ff2-2f01569d6069.002
f 2/1/1 3/2/1 4/3/1
f 2/4/2 5/5/2 1/6/2
f 3/7/3 8/8/3 4/5/3
f 1/9/4 7/10/4 3/1/4
f 6/9/5 4/10/5 8/1/5
f 10/4/1 13/11/1 11/12/1
f 14/13/2 10/14/2 11/15/2
f 18/16/5 17/11/5 16/12/5
f 20/17/2 16/15/2 15/18/2
f 22/1/5 23/2/5 24/3/5
f 22/4/2 25/5/2 21/6/2
f 23/7/3 28/8/3 24/5/3
f 21/9/1 27/10/1 23/1/1
f 26/9/6 24/10/6 28/1/6
f 34/19/1 30/20/1 31/21/1
f 35/19/5 32/20/5 34/21/5
f 29/22/2 32/23/2 33/15/2
f 42/19/1 37/20/1 39/21/1
f 39/19/4 36/20/4 38/21/4
f 36/15/2 40/24/2 41/22/2
f 45/19/6 47/20/6 49/21/6
f 49/19/5 46/20/5 48/21/5
f 43/21/2 46/25/2 47/19/2
f 53/26/5 56/27/5 55/28/5
f 51/15/2 53/29/2 50/30/2
f 54/26/1 52/27/1 56/28/1
f 58/1/1 59/2/1 60/3/1
f 58/4/2 61/5/2 57/6/2
f 59/7/3 64/8/3 60/5/3
f 57/9/4 63/10/4 59/1/4
f 62/9/5 60/10/5 64/1/5
f 66/1/5 67/2/5 68/3/5
f 66/4/2 69/5/2 65/6/2
f 67/7/3 72/8/3 68/5/3
f 65/9/1 71/10/1 67/1/1
f 70/9/6 68/10/6 72/1/6
f 74/1/5 75/2/5 76/3/5
f 74/4/2 77/5/2 73/6/2
f 75/7/3 80/8/3 76/5/3
f 73/9/1 79/10/1 75/1/1
f 78/9/6 76/10/6 80/1/6
f 82/1/1 83/2/1 84/3/1
f 82/4/2 85/5/2 81/6/2
f 83/7/3 88/8/3 84/5/3
f 81/9/4 87/10/4 83/1/4
f 86/9/5 84/10/5 88/1/5
f 90/31/2 91/32/2 92/2/2
f 90/33/4 93/34/4 89/35/4
f 91/36/5 96/37/5 92/34/5
f 89/38/1 95/39/1 91/40/1
f 94/38/6 92/39/6 96/40/6
f 98/31/2 99/32/2 100/2/2
f 98/33/6 101/34/6 97/35/6
f 99/36/1 104/37/1 100/34/1
f 97/38/4 103/39/4 99/40/4
f 102/38/5 100/39/5 104/40/5
f 2/1/1 1/31/1 3/2/1
f 2/4/2 6/7/2 5/5/2
f 3/7/3 7/9/3 8/8/3
f 1/9/4 5/35/4 7/10/4
f 6/9/5 2/35/5 4/10/5
f 10/4/1 12/41/1 13/11/1
f 14/13/2 9/42/2 10/14/2
f 18/16/5 19/14/5 17/11/5
f 20/17/2 18/14/2 16/15/2
f 22/1/5 21/31/5 23/2/5
f 22/4/2 26/7/2 25/5/2
f 23/7/3 27/9/3 28/8/3
f 21/9/1 25/35/1 27/10/1
f 26/9/6 22/35/6 24/10/6
f 34/19/1 32/43/1 30/20/1
f 35/19/5 33/43/5 32/20/5
f 29/22/2 30/21/2 32/23/2
f 42/19/1 40/43/1 37/20/1
f 39/19/4 37/43/4 36/20/4
f 36/15/2 37/30/2 40/24/2
f 45/19/6 43/43/6 47/20/6
f 49/19/5 47/43/5 46/20/5
f 43/21/2 44/22/2 46/25/2
f 53/26/5 54/24/5 56/27/5
f 51/15/2 54/41/2 53/29/2
f 54/26/1 51/24/1 52/27/1
f 58/1/1 57/31/1 59/2/1
f 58/4/2 62/7/2 61/5/2
f 59/7/3 63/9/3 64/8/3
f 57/9/4 61/35/4 63/10/4
f 62/9/5 58/35/5 60/10/5
f 66/1/5 65/31/5 67/2/5
f 66/4/2 70/7/2 69/5/2
f 67/7/3 71/9/3 72/8/3
f 65/9/1 69/35/1 71/10/1
f 70/9/6 66/35/6 68/10/6
f 74/1/5 73/31/5 75/2/5
f 74/4/2 78/7/2 77/5/2
f 75/7/3 79/9/3 80/8/3
f 73/9/1 77/35/1 79/10/1
f 78/9/6 74/35/6 76/10/6
f 82/1/1 81/31/1 83/2/1
f 82/4/2 86/7/2 85/5/2
f 83/7/3 87/9/3 88/8/3
f 81/9/4 85/35/4 87/10/4
f 86/9/5 82/35/5 84/10/5
f 90/31/2 89/44/2 91/32/2
f 90/33/4 94/36/4 93/34/4
f 91/36/5 95/38/5 96/37/5
f 89/38/1 93/45/1 95/39/1
f 94/38/6 90/45/6 92/39/6
f 98/31/2 97/44/2 99/32/2
f 98/33/6 102/36/6 101/34/6
f 99/36/1 103/38/1 104/37/1
f 97/38/4 101/45/4 103/39/4
f 102/38/5 98/45/5 100/39/5
