# Blender 4.4.3
# www.blender.org
mtllib corner.mtl
o corner
v 0.000000 0.187500 -0.500000
v 0.250000 0.187500 -0.500000
v 0.250000 0.062500 -0.500000
v 0.250000 0.187500 0.250000
v 0.250000 0.062500 0.250000
v 0.000000 0.187500 0.001428
v 0.000000 0.062500 -0.500000
v 0.000000 0.062500 0.000000
v 0.000000 0.000000 -0.500000
v 0.500000 0.062500 0.000000
v 0.500000 0.062500 -0.500000
v 0.500000 -0.000000 0.000000
v 0.500000 -0.000000 -0.500000
v -0.500000 1.000000 -0.500000
v -0.500000 1.000000 -0.000000
v -0.500000 0.000000 -0.000000
v 0.000000 1.000000 -0.500000
v 0.000000 1.000000 0.000000
v 0.000000 0.000000 -0.500000
v 0.000000 0.000000 0.000000
v -0.312500 0.687500 0.062500
v 0.000000 0.687500 0.062500
v -0.312500 0.500000 0.062500
v 0.000000 0.500000 0.062500
v -0.312500 0.687500 -0.000000
v 0.000000 0.687500 0.000000
v -0.312500 0.500000 -0.000000
v 0.000000 0.500000 0.000000
v 0.062500 0.437500 0.000000
v 0.062500 0.437500 -0.312500
v 0.062500 0.250000 0.000000
v 0.062500 0.250000 -0.312500
v 0.000000 0.437500 0.000000
v 0.000000 0.437500 -0.312500
v 0.000000 0.250000 0.000000
v 0.000000 0.250000 -0.312500
v 0.062500 0.687500 -0.125000
v 0.062500 0.687500 -0.437500
v 0.062500 0.500000 -0.125000
v 0.062500 0.500000 -0.437500
v 0.000000 0.687500 -0.125000
v 0.000000 0.687500 -0.437500
v 0.000000 0.500000 -0.125000
v 0.000000 0.500000 -0.437500
v 0.062500 0.937500 -0.062500
v 0.062500 0.937500 -0.375000
v 0.062500 0.750000 -0.062500
v 0.062500 0.750000 -0.375000
v 0.000000 0.937500 -0.062500
v 0.000000 0.937500 -0.375000
v 0.000000 0.750000 -0.062500
v 0.000000 0.750000 -0.375000
v -0.437500 0.437500 0.062500
v -0.125000 0.437500 0.062500
v -0.437500 0.250000 0.062500
v -0.125000 0.250000 0.062500
v -0.437500 0.437500 -0.000000
v -0.125000 0.437500 -0.000000
v -0.437500 0.250000 -0.000000
v -0.125000 0.250000 -0.000000
v -0.250000 1.062500 -0.312500
v -0.250000 1.062500 -0.625000
v -0.062500 1.062500 -0.312500
v -0.062500 1.062500 -0.625000
v -0.250000 1.000000 -0.312500
v -0.250000 1.000000 -0.625000
v -0.062500 1.000000 -0.312500
v -0.062500 1.000000 -0.625000
v -0.437500 1.062500 -0.250000
v -0.125000 1.062500 -0.250000
v -0.437500 1.062500 -0.062500
v -0.125000 1.062500 -0.062500
v -0.437500 1.000000 -0.250000
v -0.125000 1.000000 -0.250000
v -0.437500 1.000000 -0.062500
v -0.125000 1.000000 -0.062500
v -0.500000 0.937500 0.062500
v -0.187500 0.937500 0.062500
v -0.500000 0.750000 0.062500
v -0.187500 0.750000 0.062500
v -0.500000 0.937500 -0.000000
v -0.187500 0.937500 -0.000000
v -0.500000 0.750000 -0.000000
v -0.187500 0.750000 -0.000000
v -0.500000 0.187500 -0.000000
v -0.500000 0.187500 0.250000
v 0.250000 0.187500 0.250000
v -0.500000 0.062500 0.250000
v 0.250000 0.062500 0.250000
v -0.001417 0.187500 -0.000000
v -0.500000 0.062500 -0.000000
v -0.500000 0.062500 0.500000
v -0.500000 0.000000 -0.000000
v -0.500000 0.000000 0.500000
v -0.000000 0.062500 0.500000
v 0.000000 0.062500 0.000000
v -0.000000 0.000000 0.500000
v 0.000000 0.062500 0.000000
v -0.000000 0.062500 0.500000
v -0.000000 0.000000 0.500000
v 0.500000 0.062500 0.500000
v 0.500000 0.062500 0.000000
v 0.500000 -0.000000 0.500000
v 0.500000 -0.000000 0.000000
vn 1.0000 -0.0000 -0.0000
vn -0.0000 1.0000 -0.0000
vn -0.0000 -0.0000 -1.0000
vn -0.0000 -0.0000 1.0000
vn -0.0000 -1.0000 -0.0000
vn -1.0000 -0.0000 -0.0000
vt 0.781250 0.171875
vt 0.687500 0.187500
vt 0.687500 0.171875
vt 0.812321 0.218750
vt 0.875000 0.187500
vt 0.875000 0.218750
vt 1.000000 0.250000
vt 0.937500 0.257812
vt 0.937500 0.250000
vt 1.000000 0.187500
vt 1.000000 0.125000
vt 0.937500 0.000000
vt 1.000000 0.000000
vt 0.812500 0.125000
vt 0.875000 0.125000
vt 0.796875 0.148438
vt 0.757812 0.125000
vt 0.796875 0.125000
vt 0.812500 0.171875
vt 0.804688 0.132812
vt 0.812500 0.132812
vt 0.804688 0.171875
vt 0.796875 0.132812
vt 0.796875 0.171875
vt 0.789062 0.148438
vt 0.757812 0.148438
vt 0.718750 0.125000
vt 0.750000 0.171875
vt 0.789062 0.164062
vt 0.789062 0.171875
vt 0.750000 0.164062
vt 0.789062 0.156250
vt 0.750000 0.156250
vt 0.773438 0.148438
vt 0.773438 0.156250
vt 0.843573 0.218750
vt 0.781250 0.187500
vt 0.937500 0.125000
vt 0.937500 0.187500
vt 0.875000 0.250000
vt 1.000000 0.257812
vt 0.812500 0.187500
vt 0.718750 0.148438
vt 0.750000 0.148438
vt 0.781250 0.218750
s 1
usemtl m_b48d6d2a-9c0f-2889-7ff2-2f01569d6069.002
f 4/1/1 3/2/1 2/3/1
f 6/4/2 2/5/2 1/6/2
f 9/7/3 11/8/3 13/9/3
f 13/7/1 10/8/1 12/9/1
f 7/9/2 10/10/2 11/7/2
f 17/11/1 20/12/1 19/13/1
f 15/5/2 17/14/2 14/15/2
f 18/11/4 16/12/4 20/13/4
f 22/16/4 23/17/4 24/18/4
f 22/19/2 25/20/2 21/21/2
f 23/22/5 28/23/5 24/20/5
f 21/24/6 27/25/6 23/16/6
f 26/24/1 24/25/1 28/16/1
f 30/16/1 31/17/1 32/18/1
f 30/19/2 33/20/2 29/21/2
f 31/22/5 36/23/5 32/20/5
f 29/24/4 35/25/4 31/16/4
f 34/24/3 32/25/3 36/16/3
f 38/16/1 39/17/1 40/18/1
f 38/19/2 41/20/2 37/21/2
f 39/22/5 44/23/5 40/20/5
f 37/24/4 43/25/4 39/16/4
f 42/24/3 40/25/3 44/16/3
f 46/16/1 47/17/1 48/18/1
f 46/19/2 49/20/2 45/21/2
f 47/22/5 52/23/5 48/20/5
f 45/24/4 51/25/4 47/16/4
f 50/24/3 48/25/3 52/16/3
f 54/16/4 55/17/4 56/18/4
f 54/19/2 57/20/2 53/21/2
f 55/22/5 60/23/5 56/20/5
f 53/24/6 59/25/6 55/16/6
f 58/24/1 56/25/1 60/16/1
f 62/26/2 63/27/2 64/17/2
f 62/28/6 65/29/6 61/30/6
f 63/31/1 68/32/1 64/29/1
f 61/33/4 67/34/4 63/35/4
f 66/33/3 64/34/3 68/35/3
f 70/26/2 71/27/2 72/17/2
f 70/28/3 73/29/3 69/30/3
f 71/31/4 76/32/4 72/29/4
f 69/33/6 75/34/6 71/35/6
f 74/33/1 72/34/1 76/35/1
f 78/16/4 79/17/4 80/18/4
f 78/19/2 81/20/2 77/21/2
f 79/22/5 84/23/5 80/20/5
f 77/24/6 83/25/6 79/16/6
f 82/24/1 80/25/1 84/16/1
f 86/19/4 89/2/4 87/3/4
f 90/36/2 86/37/2 87/5/2
f 97/7/4 92/8/4 94/9/4
f 94/7/6 91/8/6 93/9/6
f 91/5/2 95/38/2 96/39/2
f 103/7/4 99/8/4 100/9/4
f 104/7/1 101/8/1 103/9/1
f 98/39/2 101/40/2 102/5/2
f 4/1/1 5/37/1 3/2/1
f 6/4/2 4/37/2 2/5/2
f 9/7/3 7/41/3 11/8/3
f 13/7/1 11/41/1 10/8/1
f 7/9/2 8/39/2 10/10/2
f 17/11/1 18/38/1 20/12/1
f 15/5/2 18/42/2 17/14/2
f 18/11/4 15/38/4 16/12/4
f 22/16/4 21/26/4 23/17/4
f 22/19/2 26/22/2 25/20/2
f 23/22/5 27/24/5 28/23/5
f 21/24/6 25/30/6 27/25/6
f 26/24/1 22/30/1 24/25/1
f 30/16/1 29/26/1 31/17/1
f 30/19/2 34/22/2 33/20/2
f 31/22/5 35/24/5 36/23/5
f 29/24/4 33/30/4 35/25/4
f 34/24/3 30/30/3 32/25/3
f 38/16/1 37/26/1 39/17/1
f 38/19/2 42/22/2 41/20/2
f 39/22/5 43/24/5 44/23/5
f 37/24/4 41/30/4 43/25/4
f 42/24/3 38/30/3 40/25/3
f 46/16/1 45/26/1 47/17/1
f 46/19/2 50/22/2 49/20/2
f 47/22/5 51/24/5 52/23/5
f 45/24/4 49/30/4 51/25/4
f 50/24/3 46/30/3 48/25/3
f 54/16/4 53/26/4 55/17/4
f 54/19/2 58/22/2 57/20/2
f 55/22/5 59/24/5 60/23/5
f 53/24/6 57/30/6 59/25/6
f 58/24/1 54/30/1 56/25/1
f 62/26/2 61/43/2 63/27/2
f 62/28/6 66/31/6 65/29/6
f 63/31/1 67/33/1 68/32/1
f 61/33/4 65/44/4 67/34/4
f 66/33/3 62/44/3 64/34/3
f 70/26/2 69/43/2 71/27/2
f 70/28/3 74/31/3 73/29/3
f 71/31/4 75/33/4 76/32/4
f 69/33/6 73/44/6 75/34/6
f 74/33/1 70/44/1 72/34/1
f 78/16/4 77/26/4 79/17/4
f 78/19/2 82/22/2 81/20/2
f 79/22/5 83/24/5 84/23/5
f 77/24/6 81/30/6 83/25/6
f 82/24/1 78/30/1 80/25/1
f 86/19/4 88/42/4 89/2/4
f 90/36/2 85/45/2 86/37/2
f 97/7/4 95/41/4 92/8/4
f 94/7/6 92/41/6 91/8/6
f 91/5/2 92/15/2 95/38/2
f 103/7/4 101/41/4 99/8/4
f 104/7/1 102/41/1 101/8/1
f 98/39/2 99/9/2 101/40/2
