# Blender 4.4.3
# www.blender.org
mtllib diagonal.mtl
o diagonal
v 0.000000 0.187500 -0.500000
v 0.000000 0.187500 0.500000
v -0.250000 0.187500 -0.500000
v -0.250000 0.187500 0.500000
v -0.250000 0.062500 -0.500000
v -0.250000 0.062500 0.500000
v 0.000000 0.187500 0.500000
v 0.000000 0.187500 -0.500000
v 0.250000 0.187500 0.500000
v 0.250000 0.187500 -0.500000
v 0.250000 0.062500 0.500000
v 0.250000 0.062500 -0.500000
v 0.500000 0.062500 0.500000
v 0.500000 0.062500 -0.500000
v 0.500000 0.000000 0.500000
v 0.500000 -0.000000 -0.500000
v -0.500000 0.062500 -0.500000
v -0.500000 0.062500 0.500000
v -0.500000 -0.000000 -0.500000
v -0.500000 0.000000 0.500000
v 0.500000 1.000000 -0.000000
v 0.500000 1.000000 -0.500000
v 0.500000 0.000000 0.000000
v 0.000000 1.000000 -0.000000
v 0.000000 1.000000 -0.500000
v 0.000000 0.000000 0.000000
v 0.000000 -0.000000 -0.500000
v 0.000000 1.000000 0.500000
v 0.000000 1.000000 -0.000000
v 0.000000 0.000000 0.500000
v 0.000000 0.000000 0.000000
v -0.500000 1.000000 0.500000
v -0.500000 1.000000 -0.000000
v -0.500000 0.000000 0.000000
v 0.500000 0.189063 -0.000000
v -0.500000 0.189063 -0.000000
v 0.500000 0.189062 -0.250000
v -0.500000 0.189062 -0.250000
v 0.500000 0.064062 -0.250000
v -0.500000 0.064062 -0.250000
v -0.500000 0.193750 -0.000000
v 0.500000 0.193750 -0.000000
v -0.500000 0.193750 0.250000
v 0.500000 0.193750 0.250000
v -0.500000 0.068750 0.250000
v 0.500000 0.068750 0.250000
vn -0.0000 1.0000 -0.0000
vn -1.0000 -0.0000 -0.0000
vn 1.0000 -0.0000 -0.0000
vn -0.0000 -0.0000 -1.0000
vn -0.0000 -0.0000 1.0000
vn -0.0000 -1.0000 -0.0000
vt 0.875000 0.218750
vt 0.750000 0.187500
vt 0.875000 0.187500
vt 0.812500 0.171875
vt 0.687500 0.187500
vt 0.687500 0.171875
vt 1.000000 0.250000
vt 0.875000 0.257812
vt 0.875000 0.250000
vt 1.000000 0.125000
vt 0.875000 0.125000
vt 0.937500 0.000000
vt 1.000000 0.000000
vt 0.812500 0.187500
vt 0.812500 0.125000
vt 0.750000 0.218750
vt 1.000000 0.257812
vt 0.937500 0.125000
s 1
usemtl m_b48d6d2a-9c0f-2889-7ff2-2f01569d6069
f 2/1/1 3/2/1 4/3/1
f 3/4/2 6/5/2 4/6/2
f 8/1/1 9/2/1 10/3/1
f 9/4/3 12/5/3 10/6/3
f 19/7/4 14/8/4 16/9/4
f 16/7/3 13/8/3 15/9/3
f 15/7/5 18/8/5 20/9/5
f 20/7/2 17/8/2 19/9/2
f 13/10/1 17/9/1 18/11/1
f 16/10/6 20/9/6 19/11/6
f 24/10/2 27/12/2 26/13/2
f 22/11/1 24/14/1 21/15/1
f 21/10/5 26/12/5 23/13/5
f 29/10/3 30/12/3 31/13/3
f 29/14/1 32/11/1 28/3/1
f 33/10/4 31/12/4 34/13/4
f 36/1/1 37/2/1 38/3/1
f 37/4/4 40/5/4 38/6/4
f 42/1/1 43/2/1 44/3/1
f 43/4/5 46/5/5 44/6/5
f 2/1/1 1/16/1 3/2/1
f 3/4/2 5/14/2 6/5/2
f 8/1/1 7/16/1 9/2/1
f 9/4/3 11/14/3 12/5/3
f 19/7/4 17/17/4 14/8/4
f 16/7/3 14/17/3 13/8/3
f 15/7/5 13/17/5 18/8/5
f 20/7/2 18/17/2 17/8/2
f 13/10/1 14/7/1 17/9/1
f 16/10/6 15/7/6 20/9/6
f 24/10/2 25/18/2 27/12/2
f 22/11/1 25/3/1 24/14/1
f 21/10/5 24/18/5 26/12/5
f 29/10/3 28/18/3 30/12/3
f 29/14/1 33/15/1 32/11/1
f 33/10/4 29/18/4 31/12/4
f 36/1/1 35/16/1 37/2/1
f 37/4/4 39/14/4 40/5/4
f 42/1/1 41/16/1 43/2/1
f 43/4/5 45/14/5 46/5/5
