# Blender 4.4.3
# www.blender.org
mtllib diagonal.mtl
o diagonal
v -0.000000 0.068750 0.500000
v -0.000000 0.068750 -0.500000
v 0.250000 0.068750 0.500000
v 0.250000 0.068750 -0.500000
v 0.250000 -0.056250 0.500000
v 0.250000 -0.056250 -0.500000
v -0.500000 0.062500 -0.000000
v 0.500000 0.062500 -0.000000
v -0.500000 0.062500 0.250000
v 0.500000 0.062500 0.250000
v -0.500000 -0.062500 0.250000
v 0.500000 -0.062500 0.250000
v 0.500000 -0.062500 -0.500000
v -0.500000 -0.062500 -0.500000
v 0.500000 -0.125000 -0.500000
v -0.500000 -0.125000 -0.500000
v -0.500000 -0.062500 0.500000
v 0.500000 -0.062500 0.500000
v -0.500000 -0.125000 0.500000
v 0.500000 -0.125000 0.500000
v 0.000000 0.064062 -0.500000
v -0.000000 0.064063 0.500000
v -0.250000 0.064062 -0.500000
v -0.250000 0.064063 0.500000
v -0.250000 -0.060938 -0.500000
v -0.250000 -0.060937 0.500000
v 0.000000 1.000000 -0.500000
v -0.500000 1.000000 -0.500000
v 0.000000 -0.000000 -0.500000
v 0.000000 1.000000 -0.000000
v -0.500000 1.000000 -0.000000
v 0.000000 0.000000 0.000000
v -0.500000 -0.000000 -0.000000
v 0.500000 1.000000 -0.000000
v 0.000000 1.000000 -0.000000
v 0.500000 0.000000 0.000000
v 0.000000 0.000000 0.000000
v 0.500000 1.000000 0.500000
v -0.000000 1.000000 0.500000
v -0.000000 0.000000 0.500000
v 0.500000 0.062500 -0.000000
v -0.500000 0.062500 -0.000000
v 0.500000 0.062500 -0.250000
v -0.500000 0.062500 -0.250000
v 0.500000 -0.062500 -0.250000
v -0.500000 -0.062500 -0.250000
vn -0.0000 1.0000 -0.0000
vn 1.0000 -0.0000 -0.0000
vn -0.0000 -0.0000 1.0000
vn -1.0000 -0.0000 -0.0000
vn -0.0000 -0.0000 -1.0000
vn -0.0000 -1.0000 -0.0000
vt 0.875000 0.218750
vt 0.750000 0.187500
vt 0.875000 0.187500
vt 0.812500 0.171875
vt 0.687500 0.187500
vt 0.687500 0.171875
vt 1.000000 0.250000
vt 0.875000 0.257812
vt 0.875000 0.250000
vt 1.000000 0.125000
vt 0.875000 0.125000
vt 0.937500 0.000000
vt 1.000000 0.000000
vt 0.812500 0.187500
vt 0.812500 0.125000
vt 0.750000 0.218750
vt 1.000000 0.257812
vt 0.937500 0.125000
s 1
usemtl m_b48d6d2a-9c0f-2889-7ff2-2f01569d6069.015
f 2/1/1 3/2/1 4/3/1
f 3/4/2 6/5/2 4/6/2
f 8/1/1 9/2/1 10/3/1
f 9/4/3 12/5/3 10/6/3
f 19/7/4 14/8/4 16/9/4
f 16/7/5 13/8/5 15/9/5
f 15/7/2 18/8/2 20/9/2
f 20/7/3 17/8/3 19/9/3
f 13/10/1 17/9/1 18/11/1
f 16/10/6 20/9/6 19/11/6
f 22/1/1 23/2/1 24/3/1
f 23/4/4 26/5/4 24/6/4
f 30/10/3 33/12/3 32/13/3
f 28/11/1 30/14/1 27/15/1
f 27/10/2 32/12/2 29/13/2
f 35/10/5 36/12/5 37/13/5
f 35/14/1 38/11/1 34/3/1
f 39/10/4 37/12/4 40/13/4
f 42/1/1 43/2/1 44/3/1
f 43/4/5 46/5/5 44/6/5
f 2/1/1 1/16/1 3/2/1
f 3/4/2 5/14/2 6/5/2
f 8/1/1 7/16/1 9/2/1
f 9/4/3 11/14/3 12/5/3
f 19/7/4 17/17/4 14/8/4
f 16/7/5 14/17/5 13/8/5
f 15/7/2 13/17/2 18/8/2
f 20/7/3 18/17/3 17/8/3
f 13/10/1 14/7/1 17/9/1
f 16/10/6 15/7/6 20/9/6
f 22/1/1 21/16/1 23/2/1
f 23/4/4 25/14/4 26/5/4
f 30/10/3 31/18/3 33/12/3
f 28/11/1 31/3/1 30/14/1
f 27/10/2 30/18/2 32/12/2
f 35/10/5 34/18/5 36/12/5
f 35/14/1 39/15/1 38/11/1
f 39/10/4 35/18/4 37/12/4
f 42/1/1 41/16/1 43/2/1
f 43/4/5 45/14/5 46/5/5
