# Blender 4.4.3
# www.blender.org
mtllib empty.mtl
o empty
v 0.500000 -0.062500 0.500000
v 0.500000 -0.062500 -0.500000
v 0.500000 -0.125000 0.500000
v 0.500000 -0.125000 -0.500000
v -0.500000 -0.062500 -0.500000
v -0.500000 -0.062500 0.500000
v -0.500000 -0.125000 -0.500000
v -0.500000 -0.125000 0.500000
v -0.187500 0.000000 0.562500
v -0.187500 0.000000 0.312500
v 0.000000 0.000000 0.562500
v 0.000000 0.000000 0.312500
v -0.187500 -0.062500 0.562500
v -0.187500 -0.062500 0.312500
v 0.000000 -0.062500 0.562500
v 0.000000 -0.062500 0.312500
v 0.312500 0.000000 0.562500
v 0.312500 0.000000 0.312500
v 0.500000 0.000000 0.562500
v 0.500000 0.000000 0.312500
v 0.312500 -0.062500 0.562500
v 0.312500 -0.062500 0.312500
v 0.500000 -0.062500 0.562500
v 0.500000 -0.062500 0.312500
v 0.062500 -0.000000 -0.312500
v 0.062500 -0.000000 -0.562500
v 0.250000 -0.000000 -0.312500
v 0.250000 -0.000000 -0.562500
v 0.062500 -0.062500 -0.312500
v 0.062500 -0.062500 -0.562500
v 0.250000 -0.062500 -0.312500
v 0.250000 -0.062500 -0.562500
v 0.062500 0.000000 0.000000
v 0.062500 -0.000000 -0.250000
v 0.250000 0.000000 0.000000
v 0.250000 -0.000000 -0.250000
v 0.062500 -0.062500 0.000000
v 0.062500 -0.062500 -0.250000
v 0.250000 -0.062500 0.000000
v 0.250000 -0.062500 -0.250000
v 0.062500 0.000000 0.375000
v 0.062500 0.000000 0.062500
v 0.250000 0.000000 0.375000
v 0.250000 0.000000 0.062500
v 0.062500 -0.062500 0.375000
v 0.062500 -0.062500 0.062500
v 0.250000 -0.062500 0.375000
v 0.250000 -0.062500 0.062500
v -0.187500 -0.000000 -0.062500
v -0.187500 -0.000000 -0.375000
v 0.000000 -0.000000 -0.062500
v 0.000000 -0.000000 -0.375000
v -0.187500 -0.062500 -0.062500
v -0.187500 -0.062500 -0.375000
v 0.000000 -0.062500 -0.062500
v 0.000000 -0.062500 -0.375000
v -0.187500 0.000000 0.250000
v -0.187500 0.000000 0.000000
v 0.000000 0.000000 0.250000
v 0.000000 0.000000 0.000000
v -0.187500 -0.062500 0.250000
v -0.187500 -0.062500 0.000000
v 0.000000 -0.062500 0.250000
v 0.000000 -0.062500 0.000000
v -0.437500 -0.000000 -0.312500
v -0.437500 -0.000000 -0.562500
v -0.250000 -0.000000 -0.312500
v -0.250000 -0.000000 -0.562500
v -0.437500 -0.062500 -0.312500
v -0.437500 -0.062500 -0.562500
v -0.250000 -0.062500 -0.312500
v -0.250000 -0.062500 -0.562500
v -0.437500 0.000000 0.000000
v -0.437500 -0.000000 -0.250000
v -0.250000 0.000000 0.000000
v -0.250000 -0.000000 -0.250000
v -0.437500 -0.062500 0.000000
v -0.437500 -0.062500 -0.250000
v -0.250000 -0.062500 0.000000
v -0.250000 -0.062500 -0.250000
v -0.437500 0.000000 0.375000
v -0.437500 0.000000 0.062500
v -0.250000 0.000000 0.375000
v -0.250000 0.000000 0.062500
v -0.437500 -0.062500 0.375000
v -0.437500 -0.062500 0.062500
v -0.250000 -0.062500 0.375000
v -0.250000 -0.062500 0.062500
v 0.312500 0.000000 0.250000
v 0.312500 0.000000 0.000000
v 0.500000 0.000000 0.250000
v 0.500000 0.000000 0.000000
v 0.312500 -0.062500 0.250000
v 0.312500 -0.062500 0.000000
v 0.500000 -0.062500 0.250000
v 0.500000 -0.062500 0.000000
v 0.312500 -0.000000 -0.062500
v 0.312500 -0.000000 -0.375000
v 0.500000 -0.000000 -0.062500
v 0.500000 -0.000000 -0.375000
v 0.312500 -0.062500 -0.062500
v 0.312500 -0.062500 -0.375000
v 0.500000 -0.062500 -0.062500
v 0.500000 -0.062500 -0.375000
vn -0.0000 -0.0000 -1.0000
vn 1.0000 -0.0000 -0.0000
vn -0.0000 -0.0000 1.0000
vn -1.0000 -0.0000 -0.0000
vn -0.0000 1.0000 -0.0000
vt 1.000000 0.250000
vt 0.875000 0.257812
vt 0.875000 0.250000
vt 1.000000 0.125000
vt 0.875000 0.125000
vt 0.710938 0.148438
vt 0.679688 0.125000
vt 0.710938 0.125000
vt 0.718750 0.148438
vt 0.718750 0.125000
vt 1.000000 0.257812
vt 0.679688 0.148438
s 1
usemtl m_b48d6d2a-9c0f-2889-7ff2-2f01569d6069.004
f 7/1/1 2/2/1 4/3/1
f 4/1/2 1/2/2 3/3/2
f 3/1/3 6/2/3 8/3/3
f 8/1/4 5/2/4 7/3/4
f 1/4/5 5/3/5 6/5/5
f 10/6/5 11/7/5 12/8/5
f 10/9/4 13/8/4 9/10/4
f 11/9/2 16/8/2 12/10/2
f 9/9/3 15/8/3 11/10/3
f 14/9/1 12/8/1 16/10/1
f 18/6/5 19/7/5 20/8/5
f 18/9/4 21/8/4 17/10/4
f 19/9/2 24/8/2 20/10/2
f 17/9/3 23/8/3 19/10/3
f 22/9/1 20/8/1 24/10/1
f 26/6/5 27/7/5 28/8/5
f 26/9/4 29/8/4 25/10/4
f 27/9/2 32/8/2 28/10/2
f 25/9/3 31/8/3 27/10/3
f 30/9/1 28/8/1 32/10/1
f 34/6/5 35/7/5 36/8/5
f 34/9/4 37/8/4 33/10/4
f 35/9/2 40/8/2 36/10/2
f 33/9/3 39/8/3 35/10/3
f 38/9/1 36/8/1 40/10/1
f 42/6/5 43/7/5 44/8/5
f 42/9/4 45/8/4 41/10/4
f 43/9/2 48/8/2 44/10/2
f 41/9/3 47/8/3 43/10/3
f 46/9/1 44/8/1 48/10/1
f 50/6/5 51/7/5 52/8/5
f 50/9/4 53/8/4 49/10/4
f 51/9/2 56/8/2 52/10/2
f 49/9/3 55/8/3 51/10/3
f 54/9/1 52/8/1 56/10/1
f 58/6/5 59/7/5 60/8/5
f 58/9/4 61/8/4 57/10/4
f 59/9/2 64/8/2 60/10/2
f 57/9/3 63/8/3 59/10/3
f 62/9/1 60/8/1 64/10/1
f 66/6/5 67/7/5 68/8/5
f 66/9/4 69/8/4 65/10/4
f 67/9/2 72/8/2 68/10/2
f 65/9/3 71/8/3 67/10/3
f 70/9/1 68/8/1 72/10/1
f 74/6/5 75/7/5 76/8/5
f 74/9/4 77/8/4 73/10/4
f 75/9/2 80/8/2 76/10/2
f 73/9/3 79/8/3 75/10/3
f 78/9/1 76/8/1 80/10/1
f 82/6/5 83/7/5 84/8/5
f 82/9/4 85/8/4 81/10/4
f 83/9/2 88/8/2 84/10/2
f 81/9/3 87/8/3 83/10/3
f 86/9/1 84/8/1 88/10/1
f 90/6/5 91/7/5 92/8/5
f 90/9/4 93/8/4 89/10/4
f 91/9/2 96/8/2 92/10/2
f 89/9/3 95/8/3 91/10/3
f 94/9/1 92/8/1 96/10/1
f 98/6/5 99/7/5 100/8/5
f 98/9/4 101/8/4 97/10/4
f 99/9/2 104/8/2 100/10/2
f 97/9/3 103/8/3 99/10/3
f 102/9/1 100/8/1 104/10/1
f 7/1/1 5/11/1 2/2/1
f 4/1/2 2/11/2 1/2/2
f 3/1/3 1/11/3 6/2/3
f 8/1/4 6/11/4 5/2/4
f 1/4/5 2/1/5 5/3/5
f 10/6/5 9/12/5 11/7/5
f 10/9/4 14/6/4 13/8/4
f 11/9/2 15/6/2 16/8/2
f 9/9/3 13/6/3 15/8/3
f 14/9/1 10/6/1 12/8/1
f 18/6/5 17/12/5 19/7/5
f 18/9/4 22/6/4 21/8/4
f 19/9/2 23/6/2 24/8/2
f 17/9/3 21/6/3 23/8/3
f 22/9/1 18/6/1 20/8/1
f 26/6/5 25/12/5 27/7/5
f 26/9/4 30/6/4 29/8/4
f 27/9/2 31/6/2 32/8/2
f 25/9/3 29/6/3 31/8/3
f 30/9/1 26/6/1 28/8/1
f 34/6/5 33/12/5 35/7/5
f 34/9/4 38/6/4 37/8/4
f 35/9/2 39/6/2 40/8/2
f 33/9/3 37/6/3 39/8/3
f 38/9/1 34/6/1 36/8/1
f 42/6/5 41/12/5 43/7/5
f 42/9/4 46/6/4 45/8/4
f 43/9/2 47/6/2 48/8/2
f 41/9/3 45/6/3 47/8/3
f 46/9/1 42/6/1 44/8/1
f 50/6/5 49/12/5 51/7/5
f 50/9/4 54/6/4 53/8/4
f 51/9/2 55/6/2 56/8/2
f 49/9/3 53/6/3 55/8/3
f 54/9/1 50/6/1 52/8/1
f 58/6/5 57/12/5 59/7/5
f 58/9/4 62/6/4 61/8/4
f 59/9/2 63/6/2 64/8/2
f 57/9/3 61/6/3 63/8/3
f 62/9/1 58/6/1 60/8/1
f 66/6/5 65/12/5 67/7/5
f 66/9/4 70/6/4 69/8/4
f 67/9/2 71/6/2 72/8/2
f 65/9/3 69/6/3 71/8/3
f 70/9/1 66/6/1 68/8/1
f 74/6/5 73/12/5 75/7/5
f 74/9/4 78/6/4 77/8/4
f 75/9/2 79/6/2 80/8/2
f 73/9/3 77/6/3 79/8/3
f 78/9/1 74/6/1 76/8/1
f 82/6/5 81/12/5 83/7/5
f 82/9/4 86/6/4 85/8/4
f 83/9/2 87/6/2 88/8/2
f 81/9/3 85/6/3 87/8/3
f 86/9/1 82/6/1 84/8/1
f 90/6/5 89/12/5 91/7/5
f 90/9/4 94/6/4 93/8/4
f 91/9/2 95/6/2 96/8/2
f 89/9/3 93/6/3 95/8/3
f 94/9/1 90/6/1 92/8/1
f 98/6/5 97/12/5 99/7/5
f 98/9/4 102/6/4 101/8/4
f 99/9/2 103/6/2 104/8/2
f 97/9/3 101/6/3 103/8/3
f 102/9/1 98/6/1 100/8/1
