# Blender 4.4.3
# www.blender.org
mtllib empty.mtl
o empty
v 0.312500 0.125000 -0.062500
v 0.312500 0.125000 -0.375000
v 0.500000 0.125000 -0.062500
v 0.500000 0.125000 -0.375000
v 0.312500 0.062500 -0.062500
v 0.312500 0.062500 -0.375000
v 0.500000 0.062500 -0.062500
v 0.500000 0.062500 -0.375000
v 0.312500 0.125000 0.250000
v 0.312500 0.125000 -0.000000
v 0.500000 0.125000 0.250000
v 0.500000 0.125000 -0.000000
v 0.312500 0.062500 0.250000
v 0.312500 0.062500 -0.000000
v 0.500000 0.062500 0.250000
v 0.500000 0.062500 -0.000000
v 0.062500 0.125000 -0.312500
v 0.062500 0.125000 -0.562500
v 0.250000 0.125000 -0.312500
v 0.250000 0.125000 -0.562500
v 0.062500 0.062500 -0.312500
v 0.062500 0.062500 -0.562500
v 0.250000 0.062500 -0.312500
v 0.250000 0.062500 -0.562500
v 0.062500 0.125000 -0.000000
v 0.062500 0.125000 -0.250000
v 0.250000 0.125000 -0.000000
v 0.250000 0.125000 -0.250000
v 0.062500 0.062500 -0.000000
v 0.062500 0.062500 -0.250000
v 0.250000 0.062500 -0.000000
v 0.250000 0.062500 -0.250000
v 0.062500 0.125000 0.375000
v 0.062500 0.125000 0.062500
v 0.250000 0.125000 0.375000
v 0.250000 0.125000 0.062500
v 0.062500 0.062500 0.375000
v 0.062500 0.062500 0.062500
v 0.250000 0.062500 0.375000
v 0.250000 0.062500 0.062500
v -0.187500 0.125000 -0.062500
v -0.187500 0.125000 -0.375000
v 0.000000 0.125000 -0.062500
v 0.000000 0.125000 -0.375000
v -0.187500 0.062500 -0.062500
v -0.187500 0.062500 -0.375000
v 0.000000 0.062500 -0.062500
v 0.000000 0.062500 -0.375000
v -0.187500 0.125000 0.250000
v -0.187500 0.125000 -0.000000
v 0.000000 0.125000 0.250000
v 0.000000 0.125000 -0.000000
v -0.187500 0.062500 0.250000
v -0.187500 0.062500 -0.000000
v 0.000000 0.062500 0.250000
v 0.000000 0.062500 -0.000000
v -0.187500 0.125000 0.562500
v -0.187500 0.125000 0.312500
v 0.000000 0.125000 0.562500
v 0.000000 0.125000 0.312500
v -0.187500 0.062500 0.562500
v -0.187500 0.062500 0.312500
v 0.000000 0.062500 0.562500
v 0.000000 0.062500 0.312500
v 0.500000 0.062500 0.500000
v 0.500000 0.062500 -0.500000
v 0.500000 0.000000 0.500000
v 0.500000 -0.000000 -0.500000
v -0.500000 0.062500 -0.500000
v -0.500000 0.062500 0.500000
v -0.500000 -0.000000 -0.500000
v -0.500000 0.000000 0.500000
v -0.437500 0.125000 -0.312500
v -0.437500 0.125000 -0.562500
v -0.250000 0.125000 -0.312500
v -0.250000 0.125000 -0.562500
v -0.437500 0.062500 -0.312500
v -0.437500 0.062500 -0.562500
v -0.250000 0.062500 -0.312500
v -0.250000 0.062500 -0.562500
v -0.437500 0.125000 -0.000000
v -0.437500 0.125000 -0.250000
v -0.250000 0.125000 -0.000000
v -0.250000 0.125000 -0.250000
v -0.437500 0.062500 -0.000000
v -0.437500 0.062500 -0.250000
v -0.250000 0.062500 -0.000000
v -0.250000 0.062500 -0.250000
v -0.437500 0.125000 0.375000
v -0.437500 0.125000 0.062500
v -0.250000 0.125000 0.375000
v -0.250000 0.125000 0.062500
v -0.437500 0.062500 0.375000
v -0.437500 0.062500 0.062500
v -0.250000 0.062500 0.375000
v -0.250000 0.062500 0.062500
v 0.312500 0.125000 0.562500
v 0.312500 0.125000 0.312500
v 0.500000 0.125000 0.562500
v 0.500000 0.125000 0.312500
v 0.312500 0.062500 0.562500
v 0.312500 0.062500 0.312500
v 0.500000 0.062500 0.562500
v 0.500000 0.062500 0.312500
vn -0.0000 1.0000 -0.0000
vn -1.0000 -0.0000 -0.0000
vn 1.0000 -0.0000 -0.0000
vn -0.0000 -0.0000 1.0000
vn -0.0000 -0.0000 -1.0000
vt 0.710938 0.148438
vt 0.679688 0.125000
vt 0.710938 0.125000
vt 0.718750 0.148438
vt 0.718750 0.125000
vt 1.000000 0.250000
vt 0.875000 0.257812
vt 0.875000 0.250000
vt 1.000000 0.125000
vt 0.875000 0.125000
vt 0.679688 0.148438
vt 1.000000 0.257812
s 1
usemtl m_b48d6d2a-9c0f-2889-7ff2-2f01569d6069
f 2/1/1 3/2/1 4/3/1
f 2/4/2 5/3/2 1/5/2
f 3/4/3 8/3/3 4/5/3
f 1/4/4 7/3/4 3/5/4
f 6/4/5 4/3/5 8/5/5
f 10/1/1 11/2/1 12/3/1
f 10/4/2 13/3/2 9/5/2
f 11/4/3 16/3/3 12/5/3
f 9/4/4 15/3/4 11/5/4
f 14/4/5 12/3/5 16/5/5
f 18/1/1 19/2/1 20/3/1
f 18/4/2 21/3/2 17/5/2
f 19/4/3 24/3/3 20/5/3
f 17/4/4 23/3/4 19/5/4
f 22/4/5 20/3/5 24/5/5
f 26/1/1 27/2/1 28/3/1
f 26/4/2 29/3/2 25/5/2
f 27/4/3 32/3/3 28/5/3
f 25/4/4 31/3/4 27/5/4
f 30/4/5 28/3/5 32/5/5
f 34/1/1 35/2/1 36/3/1
f 34/4/2 37/3/2 33/5/2
f 35/4/3 40/3/3 36/5/3
f 33/4/4 39/3/4 35/5/4
f 38/4/5 36/3/5 40/5/5
f 42/1/1 43/2/1 44/3/1
f 42/4/2 45/3/2 41/5/2
f 43/4/3 48/3/3 44/5/3
f 41/4/4 47/3/4 43/5/4
f 46/4/5 44/3/5 48/5/5
f 50/1/1 51/2/1 52/3/1
f 50/4/2 53/3/2 49/5/2
f 51/4/3 56/3/3 52/5/3
f 49/4/4 55/3/4 51/5/4
f 54/4/5 52/3/5 56/5/5
f 58/1/1 59/2/1 60/3/1
f 58/4/2 61/3/2 57/5/2
f 59/4/3 64/3/3 60/5/3
f 57/4/4 63/3/4 59/5/4
f 62/4/5 60/3/5 64/5/5
f 71/6/5 66/7/5 68/8/5
f 68/6/3 65/7/3 67/8/3
f 67/6/4 70/7/4 72/8/4
f 72/6/2 69/7/2 71/8/2
f 65/9/1 69/8/1 70/10/1
f 74/1/1 75/2/1 76/3/1
f 74/4/2 77/3/2 73/5/2
f 75/4/3 80/3/3 76/5/3
f 73/4/4 79/3/4 75/5/4
f 78/4/5 76/3/5 80/5/5
f 82/1/1 83/2/1 84/3/1
f 82/4/2 85/3/2 81/5/2
f 83/4/3 88/3/3 84/5/3
f 81/4/4 87/3/4 83/5/4
f 86/4/5 84/3/5 88/5/5
f 90/1/1 91/2/1 92/3/1
f 90/4/2 93/3/2 89/5/2
f 91/4/3 96/3/3 92/5/3
f 89/4/4 95/3/4 91/5/4
f 94/4/5 92/3/5 96/5/5
f 98/1/1 99/2/1 100/3/1
f 98/4/2 101/3/2 97/5/2
f 99/4/3 104/3/3 100/5/3
f 97/4/4 103/3/4 99/5/4
f 102/4/5 100/3/5 104/5/5
f 2/1/1 1/11/1 3/2/1
f 2/4/2 6/1/2 5/3/2
f 3/4/3 7/1/3 8/3/3
f 1/4/4 5/1/4 7/3/4
f 6/4/5 2/1/5 4/3/5
f 10/1/1 9/11/1 11/2/1
f 10/4/2 14/1/2 13/3/2
f 11/4/3 15/1/3 16/3/3
f 9/4/4 13/1/4 15/3/4
f 14/4/5 10/1/5 12/3/5
f 18/1/1 17/11/1 19/2/1
f 18/4/2 22/1/2 21/3/2
f 19/4/3 23/1/3 24/3/3
f 17/4/4 21/1/4 23/3/4
f 22/4/5 18/1/5 20/3/5
f 26/1/1 25/11/1 27/2/1
f 26/4/2 30/1/2 29/3/2
f 27/4/3 31/1/3 32/3/3
f 25/4/4 29/1/4 31/3/4
f 30/4/5 26/1/5 28/3/5
f 34/1/1 33/11/1 35/2/1
f 34/4/2 38/1/2 37/3/2
f 35/4/3 39/1/3 40/3/3
f 33/4/4 37/1/4 39/3/4
f 38/4/5 34/1/5 36/3/5
f 42/1/1 41/11/1 43/2/1
f 42/4/2 46/1/2 45/3/2
f 43/4/3 47/1/3 48/3/3
f 41/4/4 45/1/4 47/3/4
f 46/4/5 42/1/5 44/3/5
f 50/1/1 49/11/1 51/2/1
f 50/4/2 54/1/2 53/3/2
f 51/4/3 55/1/3 56/3/3
f 49/4/4 53/1/4 55/3/4
f 54/4/5 50/1/5 52/3/5
f 58/1/1 57/11/1 59/2/1
f 58/4/2 62/1/2 61/3/2
f 59/4/3 63/1/3 64/3/3
f 57/4/4 61/1/4 63/3/4
f 62/4/5 58/1/5 60/3/5
f 71/6/5 69/12/5 66/7/5
f 68/6/3 66/12/3 65/7/3
f 67/6/4 65/12/4 70/7/4
f 72/6/2 70/12/2 69/7/2
f 65/9/1 66/6/1 69/8/1
f 74/1/1 73/11/1 75/2/1
f 74/4/2 78/1/2 77/3/2
f 75/4/3 79/1/3 80/3/3
f 73/4/4 77/1/4 79/3/4
f 78/4/5 74/1/5 76/3/5
f 82/1/1 81/11/1 83/2/1
f 82/4/2 86/1/2 85/3/2
f 83/4/3 87/1/3 88/3/3
f 81/4/4 85/1/4 87/3/4
f 86/4/5 82/1/5 84/3/5
f 90/1/1 89/11/1 91/2/1
f 90/4/2 94/1/2 93/3/2
f 91/4/3 95/1/3 96/3/3
f 89/4/4 93/1/4 95/3/4
f 94/4/5 90/1/5 92/3/5
f 98/1/1 97/11/1 99/2/1
f 98/4/2 102/1/2 101/3/2
f 99/4/3 103/1/3 104/3/3
f 97/4/4 101/1/4 103/3/4
f 102/4/5 98/1/5 100/3/5
