# Blender 4.4.3
# www.blender.org
mtllib side.mtl
o side
v -0.437500 1.062500 0.562500
v -0.437500 1.062500 0.250000
v -0.250000 1.062500 0.562500
v -0.250000 1.062500 0.250000
v -0.437500 1.000000 0.562500
v -0.437500 1.000000 0.250000
v -0.250000 1.000000 0.562500
v -0.250000 1.000000 0.250000
v 0.000000 0.187500 0.500000
v 0.000000 0.187500 -0.500000
v 0.250000 0.187500 0.500000
v 0.250000 0.187500 -0.500000
v 0.250000 0.062500 0.500000
v 0.250000 0.062500 -0.500000
v 0.062500 0.687500 0.562500
v 0.062500 0.687500 0.250000
v 0.062500 0.500000 0.562500
v 0.062500 0.500000 0.250000
v 0.000000 0.687500 0.562500
v 0.000000 0.687500 0.250000
v 0.000000 0.500000 0.562500
v 0.000000 0.500000 0.250000
v 0.062500 0.687500 -0.187500
v 0.062500 0.687500 -0.500000
v 0.062500 0.500000 -0.187500
v 0.062500 0.500000 -0.500000
v 0.000000 0.687500 -0.187500
v 0.000000 0.687500 -0.500000
v 0.000000 0.500000 -0.187500
v 0.000000 0.500000 -0.500000
v 0.062500 0.937500 0.375000
v 0.062500 0.937500 0.062500
v 0.062500 0.750000 0.375000
v 0.062500 0.750000 0.062500
v 0.000000 0.937500 0.375000
v 0.000000 0.937500 0.062500
v 0.000000 0.750000 0.375000
v 0.000000 0.750000 0.062500
v -0.437500 1.062500 0.125000
v -0.437500 1.062500 -0.187500
v -0.250000 1.062500 0.125000
v -0.250000 1.062500 -0.187500
v -0.437500 1.000000 0.125000
v -0.437500 1.000000 -0.187500
v -0.250000 1.000000 0.125000
v -0.250000 1.000000 -0.187500
v -0.187500 1.062500 -0.062500
v -0.187500 1.062500 -0.375000
v 0.000000 1.062500 -0.062500
v 0.000000 1.062500 -0.375000
v -0.187500 1.000000 -0.062500
v -0.187500 1.000000 -0.375000
v 0.000000 1.000000 -0.062500
v 0.000000 1.000000 -0.375000
v -0.187500 1.062500 0.312500
v -0.187500 1.062500 -0.000000
v 0.000000 1.062500 0.312500
v 0.000000 1.062500 -0.000000
v -0.187500 1.000000 0.312500
v -0.187500 1.000000 -0.000000
v 0.000000 1.000000 0.312500
v 0.000000 1.000000 -0.000000
v 0.062500 0.937500 -0.000000
v 0.062500 0.937500 -0.312500
v 0.062500 0.750000 -0.000000
v 0.062500 0.750000 -0.312500
v 0.000000 0.937500 -0.000000
v 0.000000 0.937500 -0.312500
v 0.000000 0.750000 -0.000000
v 0.000000 0.750000 -0.312500
v 0.062500 0.437500 0.312500
v 0.062500 0.437500 -0.000000
v 0.062500 0.250000 0.312500
v 0.062500 0.250000 -0.000000
v 0.000000 0.437500 0.312500
v 0.000000 0.437500 -0.000000
v 0.000000 0.250000 0.312500
v 0.000000 0.250000 -0.000000
v 0.062500 0.687500 0.187500
v 0.062500 0.687500 -0.125000
v 0.062500 0.500000 0.187500
v 0.062500 0.500000 -0.125000
v 0.000000 0.687500 0.187500
v 0.000000 0.687500 -0.125000
v 0.000000 0.500000 0.187500
v 0.000000 0.500000 -0.125000
v 0.062500 0.437500 -0.062500
v 0.062500 0.437500 -0.375000
v 0.062500 0.250000 -0.062500
v 0.062500 0.250000 -0.375000
v 0.000000 0.437500 -0.062500
v 0.000000 0.437500 -0.375000
v 0.000000 0.250000 -0.062500
v 0.000000 0.250000 -0.375000
v 0.000000 1.000000 -0.500000
v -0.500000 1.000000 -0.500000
v 0.000000 0.062500 -0.500000
v -0.000000 1.000000 0.500000
v -0.500000 1.000000 0.500000
v -0.000000 0.062500 0.500000
v 0.500000 0.062500 0.500000
v 0.500000 0.062500 -0.500000
v 0.500000 0.000000 0.500000
v 0.500000 -0.000000 -0.500000
v 0.000000 0.062500 -0.500000
v 0.000000 0.062500 0.500000
v 0.000000 -0.000000 -0.500000
v 0.000000 0.000000 0.500000
vn -0.0000 1.0000 -0.0000
vn -1.0000 -0.0000 -0.0000
vn 1.0000 -0.0000 -0.0000
vn -0.0000 -0.0000 1.0000
vn -0.0000 -0.0000 -1.0000
vn -0.0000 -1.0000 -0.0000
vt 0.757812 0.148438
vt 0.718750 0.125000
vt 0.757812 0.125000
vt 0.750000 0.171875
vt 0.789062 0.164062
vt 0.789062 0.171875
vt 0.750000 0.164062
vt 0.789062 0.156250
vt 0.750000 0.156250
vt 0.773438 0.148438
vt 0.773438 0.156250
vt 0.875000 0.218750
vt 0.750000 0.187500
vt 0.875000 0.187500
vt 0.812500 0.171875
vt 0.687500 0.187500
vt 0.687500 0.171875
vt 0.796875 0.148438
vt 0.796875 0.125000
vt 0.804688 0.132812
vt 0.812500 0.132812
vt 0.804688 0.171875
vt 0.796875 0.132812
vt 0.796875 0.171875
vt 0.789062 0.148438
vt 0.875000 0.062500
vt 0.750000 0.000000
vt 0.875000 0.000000
vt 1.000000 0.125000
vt 1.000000 0.000000
vt 1.000000 0.250000
vt 0.875000 0.257812
vt 0.875000 0.250000
vt 0.875000 0.125000
vt 0.718750 0.148438
vt 0.750000 0.148438
vt 0.750000 0.218750
vt 0.812500 0.187500
vt 0.750000 0.062500
vt 1.000000 0.257812
s 1
usemtl m_b48d6d2a-9c0f-2889-7ff2-2f01569d6069
f 2/1/1 3/2/1 4/3/1
f 2/4/2 5/5/2 1/6/2
f 3/7/3 8/8/3 4/5/3
f 1/9/4 7/10/4 3/11/4
f 6/9/5 4/10/5 8/11/5
f 10/12/1 11/13/1 12/14/1
f 11/15/3 14/16/3 12/17/3
f 16/18/3 17/3/3 18/19/3
f 16/15/1 19/20/1 15/21/1
f 17/22/6 22/23/6 18/20/6
f 15/24/4 21/25/4 17/18/4
f 20/24/5 18/25/5 22/18/5
f 24/18/3 25/3/3 26/19/3
f 24/15/1 27/20/1 23/21/1
f 25/22/6 30/23/6 26/20/6
f 23/24/4 29/25/4 25/18/4
f 28/24/5 26/25/5 30/18/5
f 32/18/3 33/3/3 34/19/3
f 32/15/1 35/20/1 31/21/1
f 33/22/6 38/23/6 34/20/6
f 31/24/4 37/25/4 33/18/4
f 36/24/5 34/25/5 38/18/5
f 40/1/1 41/2/1 42/3/1
f 40/4/2 43/5/2 39/6/2
f 41/7/3 46/8/3 42/5/3
f 39/9/4 45/10/4 41/11/4
f 44/9/5 42/10/5 46/11/5
f 48/1/1 49/2/1 50/3/1
f 48/4/2 51/5/2 47/6/2
f 49/7/3 54/8/3 50/5/3
f 47/9/4 53/10/4 49/11/4
f 52/9/5 50/10/5 54/11/5
f 56/1/1 57/2/1 58/3/1
f 56/4/2 59/5/2 55/6/2
f 57/7/3 62/8/3 58/5/3
f 55/9/4 61/10/4 57/11/4
f 60/9/5 58/10/5 62/11/5
f 64/18/3 65/3/3 66/19/3
f 64/15/1 67/20/1 63/21/1
f 65/22/6 70/23/6 66/20/6
f 63/24/4 69/25/4 65/18/4
f 68/24/5 66/25/5 70/18/5
f 72/18/3 73/3/3 74/19/3
f 72/15/1 75/20/1 71/21/1
f 73/22/6 78/23/6 74/20/6
f 71/24/4 77/25/4 73/18/4
f 76/24/5 74/25/5 78/18/5
f 80/18/3 81/3/3 82/19/3
f 80/15/1 83/20/1 79/21/1
f 81/22/6 86/23/6 82/20/6
f 79/24/4 85/25/4 81/18/4
f 84/24/5 82/25/5 86/18/5
f 88/18/3 89/3/3 90/19/3
f 88/15/1 91/20/1 87/21/1
f 89/22/6 94/23/6 90/20/6
f 87/24/4 93/25/4 89/18/4
f 92/24/5 90/25/5 94/18/5
f 96/26/1 98/27/1 95/28/1
f 95/29/3 100/28/3 97/30/3
f 107/31/5 102/32/5 104/33/5
f 104/31/3 101/32/3 103/33/3
f 103/31/4 106/32/4 108/33/4
f 108/31/2 105/32/2 107/33/2
f 101/29/1 105/33/1 106/34/1
f 2/1/1 1/35/1 3/2/1
f 2/4/2 6/7/2 5/5/2
f 3/7/3 7/9/3 8/8/3
f 1/9/4 5/36/4 7/10/4
f 6/9/5 2/36/5 4/10/5
f 10/12/1 9/37/1 11/13/1
f 11/15/3 13/38/3 14/16/3
f 16/18/3 15/1/3 17/3/3
f 16/15/1 20/22/1 19/20/1
f 17/22/6 21/24/6 22/23/6
f 15/24/4 19/6/4 21/25/4
f 20/24/5 16/6/5 18/25/5
f 24/18/3 23/1/3 25/3/3
f 24/15/1 28/22/1 27/20/1
f 25/22/6 29/24/6 30/23/6
f 23/24/4 27/6/4 29/25/4
f 28/24/5 24/6/5 26/25/5
f 32/18/3 31/1/3 33/3/3
f 32/15/1 36/22/1 35/20/1
f 33/22/6 37/24/6 38/23/6
f 31/24/4 35/6/4 37/25/4
f 36/24/5 32/6/5 34/25/5
f 40/1/1 39/35/1 41/2/1
f 40/4/2 44/7/2 43/5/2
f 41/7/3 45/9/3 46/8/3
f 39/9/4 43/36/4 45/10/4
f 44/9/5 40/36/5 42/10/5
f 48/1/1 47/35/1 49/2/1
f 48/4/2 52/7/2 51/5/2
f 49/7/3 53/9/3 54/8/3
f 47/9/4 51/36/4 53/10/4
f 52/9/5 48/36/5 50/10/5
f 56/1/1 55/35/1 57/2/1
f 56/4/2 60/7/2 59/5/2
f 57/7/3 61/9/3 62/8/3
f 55/9/4 59/36/4 61/10/4
f 60/9/5 56/36/5 58/10/5
f 64/18/3 63/1/3 65/3/3
f 64/15/1 68/22/1 67/20/1
f 65/22/6 69/24/6 70/23/6
f 63/24/4 67/6/4 69/25/4
f 68/24/5 64/6/5 66/25/5
f 72/18/3 71/1/3 73/3/3
f 72/15/1 76/22/1 75/20/1
f 73/22/6 77/24/6 78/23/6
f 71/24/4 75/6/4 77/25/4
f 76/24/5 72/6/5 74/25/5
f 80/18/3 79/1/3 81/3/3
f 80/15/1 84/22/1 83/20/1
f 81/22/6 85/24/6 86/23/6
f 79/24/4 83/6/4 85/25/4
f 84/24/5 80/6/5 82/25/5
f 88/18/3 87/1/3 89/3/3
f 88/15/1 92/22/1 91/20/1
f 89/22/6 93/24/6 94/23/6
f 87/24/4 91/6/4 93/25/4
f 92/24/5 88/6/5 90/25/5
f 96/26/1 99/39/1 98/27/1
f 95/29/3 98/34/3 100/28/3
f 107/31/5 105/40/5 102/32/5
f 104/31/3 102/40/3 101/32/3
f 103/31/4 101/40/4 106/32/4
f 108/31/2 106/40/2 105/32/2
f 101/29/1 102/31/1 105/33/1
