# Blender 4.4.3
# www.blender.org
mtllib side.mtl
o side
v 0.062500 0.937500 0.375000
v 0.062500 0.937500 0.062500
v 0.062500 0.750000 0.375000
v 0.062500 0.750000 0.062500
v 0.000000 0.937500 0.375000
v 0.000000 0.937500 0.062500
v 0.000000 0.750000 0.375000
v 0.000000 0.750000 0.062500
v 0.062500 0.937500 -0.000000
v 0.062500 0.937500 -0.312500
v 0.062500 0.750000 -0.000000
v 0.062500 0.750000 -0.312500
v 0.000000 0.937500 -0.000000
v 0.000000 0.937500 -0.312500
v 0.000000 0.750000 -0.000000
v 0.000000 0.750000 -0.312500
v 0.062500 0.687500 -0.187500
v 0.062500 0.687500 -0.500000
v 0.062500 0.500000 -0.187500
v 0.062500 0.500000 -0.500000
v 0.000000 0.687500 -0.187500
v 0.000000 0.687500 -0.500000
v 0.000000 0.500000 -0.187500
v 0.000000 0.500000 -0.500000
v 0.062500 0.687500 0.562500
v 0.062500 0.687500 0.250000
v 0.062500 0.500000 0.562500
v 0.062500 0.500000 0.250000
v 0.000000 0.687500 0.562500
v 0.000000 0.687500 0.250000
v 0.000000 0.500000 0.562500
v 0.000000 0.500000 0.250000
v 0.062500 0.687500 0.187500
v 0.062500 0.687500 -0.125000
v 0.062500 0.500000 0.187500
v 0.062500 0.500000 -0.125000
v 0.000000 0.687500 0.187500
v 0.000000 0.687500 -0.125000
v 0.000000 0.500000 0.187500
v 0.000000 0.500000 -0.125000
v 0.062500 0.437500 -0.062500
v 0.062500 0.437500 -0.375000
v 0.062500 0.250000 -0.062500
v 0.062500 0.250000 -0.375000
v 0.000000 0.437500 -0.062500
v 0.000000 0.437500 -0.375000
v 0.000000 0.250000 -0.062500
v 0.000000 0.250000 -0.375000
v 0.000000 1.000000 -0.500000
v -0.500000 1.000000 -0.500000
v 0.000000 0.062500 -0.500000
v -0.000000 1.000000 0.500000
v -0.500000 1.000000 0.500000
v -0.000000 0.062500 0.500000
v 0.500000 -0.062500 0.500000
v 0.500000 -0.062500 -0.500000
v 0.500000 -0.125000 0.500000
v 0.500000 -0.125000 -0.500000
v 0.000000 -0.062500 -0.500000
v 0.000000 -0.062500 0.500000
v 0.000000 -0.125000 -0.500000
v 0.000000 -0.125000 0.500000
v -0.437500 1.062500 0.562500
v -0.437500 1.062500 0.250000
v -0.250000 1.062500 0.562500
v -0.250000 1.062500 0.250000
v -0.437500 1.000000 0.562500
v -0.437500 1.000000 0.250000
v -0.250000 1.000000 0.562500
v -0.250000 1.000000 0.250000
v -0.437500 1.062500 0.125000
v -0.437500 1.062500 -0.187500
v -0.250000 1.062500 0.125000
v -0.250000 1.062500 -0.187500
v -0.437500 1.000000 0.125000
v -0.437500 1.000000 -0.187500
v -0.250000 1.000000 0.125000
v -0.250000 1.000000 -0.187500
v -0.187500 1.062500 -0.062500
v -0.187500 1.062500 -0.375000
v 0.000000 1.062500 -0.062500
v 0.000000 1.062500 -0.375000
v -0.187500 1.000000 -0.062500
v -0.187500 1.000000 -0.375000
v 0.000000 1.000000 -0.062500
v 0.000000 1.000000 -0.375000
v -0.187500 1.062500 0.312500
v -0.187500 1.062500 -0.000000
v 0.000000 1.062500 0.312500
v 0.000000 1.062500 -0.000000
v -0.187500 1.000000 0.312500
v -0.187500 1.000000 -0.000000
v 0.000000 1.000000 0.312500
v 0.000000 1.000000 -0.000000
v 0.062500 0.437500 0.312500
v 0.062500 0.437500 -0.000000
v 0.062500 0.250000 0.312500
v 0.062500 0.250000 -0.000000
v 0.000000 0.437500 0.312500
v 0.000000 0.437500 -0.000000
v 0.000000 0.250000 0.312500
v 0.000000 0.250000 -0.000000
v 0.000000 0.062500 0.500000
v 0.000000 0.062500 -0.500000
v 0.250000 0.062500 0.500000
v 0.250000 0.062500 -0.500000
v 0.250000 -0.062500 0.500000
v 0.250000 -0.062500 -0.500000
vn 1.0000 -0.0000 -0.0000
vn -0.0000 1.0000 -0.0000
vn -0.0000 -1.0000 -0.0000
vn -0.0000 -0.0000 1.0000
vn -0.0000 -0.0000 -1.0000
vn -1.0000 -0.0000 -0.0000
vt 0.796875 0.148438
vt 0.757812 0.125000
vt 0.796875 0.125000
vt 0.812500 0.171875
vt 0.804688 0.132812
vt 0.812500 0.132812
vt 0.804688 0.171875
vt 0.796875 0.132812
vt 0.796875 0.171875
vt 0.789062 0.148438
vt 0.875000 0.062500
vt 0.750000 0.000000
vt 0.875000 0.000000
vt 1.000000 0.125000
vt 1.000000 0.000000
vt 1.000000 0.250000
vt 0.875000 0.257812
vt 0.875000 0.250000
vt 0.875000 0.125000
vt 0.757812 0.148438
vt 0.718750 0.125000
vt 0.750000 0.171875
vt 0.789062 0.164062
vt 0.789062 0.171875
vt 0.750000 0.164062
vt 0.789062 0.156250
vt 0.750000 0.156250
vt 0.773438 0.148438
vt 0.773438 0.156250
vt 0.875000 0.218750
vt 0.750000 0.187500
vt 0.875000 0.187500
vt 0.687500 0.187500
vt 0.687500 0.171875
vt 0.750000 0.062500
vt 1.000000 0.257812
vt 0.718750 0.148438
vt 0.750000 0.148438
vt 0.750000 0.218750
vt 0.812500 0.187500
s 1
usemtl m_b48d6d2a-9c0f-2889-7ff2-2f01569d6069.015
f 2/1/1 3/2/1 4/3/1
f 2/4/2 5/5/2 1/6/2
f 3/7/3 8/8/3 4/5/3
f 1/9/4 7/10/4 3/1/4
f 6/9/5 4/10/5 8/1/5
f 10/1/1 11/2/1 12/3/1
f 10/4/2 13/5/2 9/6/2
f 11/7/3 16/8/3 12/5/3
f 9/9/4 15/10/4 11/1/4
f 14/9/5 12/10/5 16/1/5
f 18/1/1 19/2/1 20/3/1
f 18/4/2 21/5/2 17/6/2
f 19/7/3 24/8/3 20/5/3
f 17/9/4 23/10/4 19/1/4
f 22/9/5 20/10/5 24/1/5
f 26/1/1 27/2/1 28/3/1
f 26/4/2 29/5/2 25/6/2
f 27/7/3 32/8/3 28/5/3
f 25/9/4 31/10/4 27/1/4
f 30/9/5 28/10/5 32/1/5
f 34/1/1 35/2/1 36/3/1
f 34/4/2 37/5/2 33/6/2
f 35/7/3 40/8/3 36/5/3
f 33/9/4 39/10/4 35/1/4
f 38/9/5 36/10/5 40/1/5
f 42/1/1 43/2/1 44/3/1
f 42/4/2 45/5/2 41/6/2
f 43/7/3 48/8/3 44/5/3
f 41/9/4 47/10/4 43/1/4
f 46/9/5 44/10/5 48/1/5
f 50/11/2 52/12/2 49/13/2
f 49/14/1 54/13/1 51/15/1
f 61/16/5 56/17/5 58/18/5
f 58/16/1 55/17/1 57/18/1
f 57/16/4 60/17/4 62/18/4
f 62/16/6 59/17/6 61/18/6
f 55/14/2 59/18/2 60/19/2
f 64/20/2 65/21/2 66/2/2
f 64/22/6 67/23/6 63/24/6
f 65/25/1 70/26/1 66/23/1
f 63/27/4 69/28/4 65/29/4
f 68/27/5 66/28/5 70/29/5
f 72/20/2 73/21/2 74/2/2
f 72/22/6 75/23/6 71/24/6
f 73/25/1 78/26/1 74/23/1
f 71/27/4 77/28/4 73/29/4
f 76/27/5 74/28/5 78/29/5
f 80/20/2 81/21/2 82/2/2
f 80/22/6 83/23/6 79/24/6
f 81/25/1 86/26/1 82/23/1
f 79/27/4 85/28/4 81/29/4
f 84/27/5 82/28/5 86/29/5
f 88/20/2 89/21/2 90/2/2
f 88/22/6 91/23/6 87/24/6
f 89/25/1 94/26/1 90/23/1
f 87/27/4 93/28/4 89/29/4
f 92/27/5 90/28/5 94/29/5
f 96/1/1 97/2/1 98/3/1
f 96/4/2 99/5/2 95/6/2
f 97/7/3 102/8/3 98/5/3
f 95/9/4 101/10/4 97/1/4
f 100/9/5 98/10/5 102/1/5
f 104/30/2 105/31/2 106/32/2
f 105/4/1 108/33/1 106/34/1
f 2/1/1 1/20/1 3/2/1
f 2/4/2 6/7/2 5/5/2
f 3/7/3 7/9/3 8/8/3
f 1/9/4 5/24/4 7/10/4
f 6/9/5 2/24/5 4/10/5
f 10/1/1 9/20/1 11/2/1
f 10/4/2 14/7/2 13/5/2
f 11/7/3 15/9/3 16/8/3
f 9/9/4 13/24/4 15/10/4
f 14/9/5 10/24/5 12/10/5
f 18/1/1 17/20/1 19/2/1
f 18/4/2 22/7/2 21/5/2
f 19/7/3 23/9/3 24/8/3
f 17/9/4 21/24/4 23/10/4
f 22/9/5 18/24/5 20/10/5
f 26/1/1 25/20/1 27/2/1
f 26/4/2 30/7/2 29/5/2
f 27/7/3 31/9/3 32/8/3
f 25/9/4 29/24/4 31/10/4
f 30/9/5 26/24/5 28/10/5
f 34/1/1 33/20/1 35/2/1
f 34/4/2 38/7/2 37/5/2
f 35/7/3 39/9/3 40/8/3
f 33/9/4 37/24/4 39/10/4
f 38/9/5 34/24/5 36/10/5
f 42/1/1 41/20/1 43/2/1
f 42/4/2 46/7/2 45/5/2
f 43/7/3 47/9/3 48/8/3
f 41/9/4 45/24/4 47/10/4
f 46/9/5 42/24/5 44/10/5
f 50/11/2 53/35/2 52/12/2
f 49/14/1 52/19/1 54/13/1
f 61/16/5 59/36/5 56/17/5
f 58/16/1 56/36/1 55/17/1
f 57/16/4 55/36/4 60/17/4
f 62/16/6 60/36/6 59/17/6
f 55/14/2 56/16/2 59/18/2
f 64/20/2 63/37/2 65/21/2
f 64/22/6 68/25/6 67/23/6
f 65/25/1 69/27/1 70/26/1
f 63/27/4 67/38/4 69/28/4
f 68/27/5 64/38/5 66/28/5
f 72/20/2 71/37/2 73/21/2
f 72/22/6 76/25/6 75/23/6
f 73/25/1 77/27/1 78/26/1
f 71/27/4 75/38/4 77/28/4
f 76/27/5 72/38/5 74/28/5
f 80/20/2 79/37/2 81/21/2
f 80/22/6 84/25/6 83/23/6
f 81/25/1 85/27/1 86/26/1
f 79/27/4 83/38/4 85/28/4
f 84/27/5 80/38/5 82/28/5
f 88/20/2 87/37/2 89/21/2
f 88/22/6 92/25/6 91/23/6
f 89/25/1 93/27/1 94/26/1
f 87/27/4 91/38/4 93/28/4
f 92/27/5 88/38/5 90/28/5
f 96/1/1 95/20/1 97/2/1
f 96/4/2 100/7/2 99/5/2
f 97/7/3 101/9/3 102/8/3
f 95/9/4 99/24/4 101/10/4
f 100/9/5 96/24/5 98/10/5
f 104/30/2 103/39/2 105/31/2
f 105/4/1 107/40/1 108/33/1
