# Blender 4.4.3
# www.blender.org
mtllib side.mtl
o side
v -0.187500 1.000000 -0.062500
v -0.187500 1.000000 -0.375000
v 0.000000 1.000000 -0.062500
v 0.000000 1.000000 -0.375000
v -0.187500 0.937500 -0.062500
v -0.187500 0.937500 -0.375000
v 0.000000 0.937500 -0.062500
v 0.000000 0.937500 -0.375000
v -0.187500 1.000000 0.312500
v -0.187500 1.000000 -0.000000
v 0.000000 1.000000 0.312500
v 0.000000 1.000000 -0.000000
v -0.187500 0.937500 0.312500
v -0.187500 0.937500 -0.000000
v 0.000000 0.937500 0.312500
v 0.000000 0.937500 -0.000000
v 0.062500 0.875000 -0.000000
v 0.062500 0.875000 -0.312500
v 0.062500 0.687500 -0.000000
v 0.062500 0.687500 -0.312500
v 0.000000 0.875000 -0.000000
v 0.000000 0.875000 -0.312500
v 0.000000 0.687500 -0.000000
v 0.000000 0.687500 -0.312500
v 0.062500 0.375000 0.312500
v 0.062500 0.375000 -0.000000
v 0.062500 0.187500 0.312500
v 0.062500 0.187500 -0.000000
v 0.000000 0.375000 0.312500
v 0.000000 0.375000 -0.000000
v 0.000000 0.187500 0.312500
v 0.000000 0.187500 -0.000000
v 0.062500 0.625000 0.187500
v 0.062500 0.625000 -0.125000
v 0.062500 0.437500 0.187500
v 0.062500 0.437500 -0.125000
v 0.000000 0.625000 0.187500
v 0.000000 0.625000 -0.125000
v 0.000000 0.437500 0.187500
v 0.000000 0.437500 -0.125000
v 0.062500 0.375000 -0.062500
v 0.062500 0.375000 -0.375000
v 0.062500 0.187500 -0.062500
v 0.062500 0.187500 -0.375000
v 0.000000 0.375000 -0.062500
v 0.000000 0.375000 -0.375000
v 0.000000 0.187500 -0.062500
v 0.000000 0.187500 -0.375000
v 0.000000 0.937500 -0.500000
v -0.500000 0.937500 -0.500000
v 0.000000 -0.000000 -0.500000
v 0.000000 0.937500 0.500000
v -0.500000 0.937500 0.500000
v 0.000000 0.000000 0.500000
v 0.500000 -0.062500 0.500000
v 0.500000 -0.062500 -0.500000
v 0.500000 -0.125000 0.500000
v 0.500000 -0.125000 -0.500000
v 0.000000 -0.062500 -0.500000
v 0.000000 -0.062500 0.500000
v 0.000000 -0.125000 -0.500000
v 0.000000 -0.125000 0.500000
v -0.437500 1.000000 0.562500
v -0.437500 1.000000 0.250000
v -0.250000 1.000000 0.562500
v -0.250000 1.000000 0.250000
v -0.437500 0.937500 0.562500
v -0.437500 0.937500 0.250000
v -0.250000 0.937500 0.562500
v -0.250000 0.937500 0.250000
v 0.062500 0.625000 0.562500
v 0.062500 0.625000 0.250000
v 0.062500 0.437500 0.562500
v 0.062500 0.437500 0.250000
v 0.000000 0.625000 0.562500
v 0.000000 0.625000 0.250000
v 0.000000 0.437500 0.562500
v 0.000000 0.437500 0.250000
v 0.062500 0.625000 -0.187500
v 0.062500 0.625000 -0.500000
v 0.062500 0.437500 -0.187500
v 0.062500 0.437500 -0.500000
v 0.000000 0.625000 -0.187500
v 0.000000 0.625000 -0.500000
v 0.000000 0.437500 -0.187500
v 0.000000 0.437500 -0.500000
v 0.062500 0.875000 0.375000
v 0.062500 0.875000 0.062500
v 0.062500 0.687500 0.375000
v 0.062500 0.687500 0.062500
v 0.000000 0.875000 0.375000
v 0.000000 0.875000 0.062500
v 0.000000 0.687500 0.375000
v 0.000000 0.687500 0.062500
v -0.437500 1.000000 0.125000
v -0.437500 1.000000 -0.187500
v -0.250000 1.000000 0.125000
v -0.250000 1.000000 -0.187500
v -0.437500 0.937500 0.125000
v -0.437500 0.937500 -0.187500
v -0.250000 0.937500 0.125000
v -0.250000 0.937500 -0.187500
v 0.000000 0.000000 0.500000
v 0.000000 -0.000000 -0.500000
v 0.250000 0.000000 0.500000
v 0.250000 -0.000000 -0.500000
v 0.250000 -0.125000 0.500000
v 0.250000 -0.125000 -0.500000
vn -0.0000 1.0000 -0.0000
vn -1.0000 -0.0000 -0.0000
vn 1.0000 -0.0000 -0.0000
vn -0.0000 -0.0000 1.0000
vn -0.0000 -0.0000 -1.0000
vn -0.0000 -1.0000 -0.0000
vt 0.757812 0.148438
vt 0.718750 0.125000
vt 0.757812 0.125000
vt 0.750000 0.171875
vt 0.789062 0.164062
vt 0.789062 0.171875
vt 0.750000 0.164062
vt 0.789062 0.156250
vt 0.750000 0.156250
vt 0.773438 0.148438
vt 0.773438 0.156250
vt 0.796875 0.148438
vt 0.796875 0.125000
vt 0.812500 0.171875
vt 0.804688 0.132812
vt 0.812500 0.132812
vt 0.804688 0.171875
vt 0.796875 0.132812
vt 0.796875 0.171875
vt 0.789062 0.148438
vt 0.875000 0.062500
vt 0.750000 0.000000
vt 0.875000 0.000000
vt 1.000000 0.125000
vt 1.000000 0.000000
vt 1.000000 0.250000
vt 0.875000 0.257812
vt 0.875000 0.250000
vt 0.875000 0.125000
vt 0.875000 0.218750
vt 0.750000 0.187500
vt 0.875000 0.187500
vt 0.687500 0.187500
vt 0.687500 0.171875
vt 0.718750 0.148438
vt 0.750000 0.148438
vt 0.750000 0.062500
vt 1.000000 0.257812
vt 0.750000 0.218750
vt 0.812500 0.187500
s 1
usemtl m_b48d6d2a-9c0f-2889-7ff2-2f01569d6069.007
f 2/1/1 3/2/1 4/3/1
f 2/4/2 5/5/2 1/6/2
f 3/7/3 8/8/3 4/5/3
f 1/9/4 7/10/4 3/11/4
f 6/9/5 4/10/5 8/11/5
f 10/1/1 11/2/1 12/3/1
f 10/4/2 13/5/2 9/6/2
f 11/7/3 16/8/3 12/5/3
f 9/9/4 15/10/4 11/11/4
f 14/9/5 12/10/5 16/11/5
f 18/12/3 19/3/3 20/13/3
f 18/14/1 21/15/1 17/16/1
f 19/17/6 24/18/6 20/15/6
f 17/19/4 23/20/4 19/12/4
f 22/19/5 20/20/5 24/12/5
f 26/12/3 27/3/3 28/13/3
f 26/14/1 29/15/1 25/16/1
f 27/17/6 32/18/6 28/15/6
f 25/19/4 31/20/4 27/12/4
f 30/19/5 28/20/5 32/12/5
f 34/12/3 35/3/3 36/13/3
f 34/14/1 37/15/1 33/16/1
f 35/17/6 40/18/6 36/15/6
f 33/19/4 39/20/4 35/12/4
f 38/19/5 36/20/5 40/12/5
f 42/12/3 43/3/3 44/13/3
f 42/14/1 45/15/1 41/16/1
f 43/17/6 48/18/6 44/15/6
f 41/19/4 47/20/4 43/12/4
f 46/19/5 44/20/5 48/12/5
f 50/21/1 52/22/1 49/23/1
f 49/24/3 54/23/3 51/25/3
f 61/26/5 56/27/5 58/28/5
f 58/26/3 55/27/3 57/28/3
f 57/26/4 60/27/4 62/28/4
f 62/26/2 59/27/2 61/28/2
f 55/24/1 59/28/1 60/29/1
f 64/1/1 65/2/1 66/3/1
f 64/4/2 67/5/2 63/6/2
f 65/7/3 70/8/3 66/5/3
f 63/9/4 69/10/4 65/11/4
f 68/9/5 66/10/5 70/11/5
f 72/12/3 73/3/3 74/13/3
f 72/14/1 75/15/1 71/16/1
f 73/17/6 78/18/6 74/15/6
f 71/19/4 77/20/4 73/12/4
f 76/19/5 74/20/5 78/12/5
f 80/12/3 81/3/3 82/13/3
f 80/14/1 83/15/1 79/16/1
f 81/17/6 86/18/6 82/15/6
f 79/19/4 85/20/4 81/12/4
f 84/19/5 82/20/5 86/12/5
f 88/12/3 89/3/3 90/13/3
f 88/14/1 91/15/1 87/16/1
f 89/17/6 94/18/6 90/15/6
f 87/19/4 93/20/4 89/12/4
f 92/19/5 90/20/5 94/12/5
f 96/1/1 97/2/1 98/3/1
f 96/4/2 99/5/2 95/6/2
f 97/7/3 102/8/3 98/5/3
f 95/9/4 101/10/4 97/11/4
f 100/9/5 98/10/5 102/11/5
f 104/30/1 105/31/1 106/32/1
f 105/14/3 108/33/3 106/34/3
f 2/1/1 1/35/1 3/2/1
f 2/4/2 6/7/2 5/5/2
f 3/7/3 7/9/3 8/8/3
f 1/9/4 5/36/4 7/10/4
f 6/9/5 2/36/5 4/10/5
f 10/1/1 9/35/1 11/2/1
f 10/4/2 14/7/2 13/5/2
f 11/7/3 15/9/3 16/8/3
f 9/9/4 13/36/4 15/10/4
f 14/9/5 10/36/5 12/10/5
f 18/12/3 17/1/3 19/3/3
f 18/14/1 22/17/1 21/15/1
f 19/17/6 23/19/6 24/18/6
f 17/19/4 21/6/4 23/20/4
f 22/19/5 18/6/5 20/20/5
f 26/12/3 25/1/3 27/3/3
f 26/14/1 30/17/1 29/15/1
f 27/17/6 31/19/6 32/18/6
f 25/19/4 29/6/4 31/20/4
f 30/19/5 26/6/5 28/20/5
f 34/12/3 33/1/3 35/3/3
f 34/14/1 38/17/1 37/15/1
f 35/17/6 39/19/6 40/18/6
f 33/19/4 37/6/4 39/20/4
f 38/19/5 34/6/5 36/20/5
f 42/12/3 41/1/3 43/3/3
f 42/14/1 46/17/1 45/15/1
f 43/17/6 47/19/6 48/18/6
f 41/19/4 45/6/4 47/20/4
f 46/19/5 42/6/5 44/20/5
f 50/21/1 53/37/1 52/22/1
f 49/24/3 52/29/3 54/23/3
f 61/26/5 59/38/5 56/27/5
f 58/26/3 56/38/3 55/27/3
f 57/26/4 55/38/4 60/27/4
f 62/26/2 60/38/2 59/27/2
f 55/24/1 56/26/1 59/28/1
f 64/1/1 63/35/1 65/2/1
f 64/4/2 68/7/2 67/5/2
f 65/7/3 69/9/3 70/8/3
f 63/9/4 67/36/4 69/10/4
f 68/9/5 64/36/5 66/10/5
f 72/12/3 71/1/3 73/3/3
f 72/14/1 76/17/1 75/15/1
f 73/17/6 77/19/6 78/18/6
f 71/19/4 75/6/4 77/20/4
f 76/19/5 72/6/5 74/20/5
f 80/12/3 79/1/3 81/3/3
f 80/14/1 84/17/1 83/15/1
f 81/17/6 85/19/6 86/18/6
f 79/19/4 83/6/4 85/20/4
f 84/19/5 80/6/5 82/20/5
f 88/12/3 87/1/3 89/3/3
f 88/14/1 92/17/1 91/15/1
f 89/17/6 93/19/6 94/18/6
f 87/19/4 91/6/4 93/20/4
f 92/19/5 88/6/5 90/20/5
f 96/1/1 95/35/1 97/2/1
f 96/4/2 100/7/2 99/5/2
f 97/7/3 101/9/3 102/8/3
f 95/9/4 99/36/4 101/10/4
f 100/9/5 96/36/5 98/10/5
f 104/30/1 103/39/1 105/31/1
f 105/14/3 107/40/3 108/33/3
